<svg width="122.00000000000001" height="32" xmlns="http://www.w3.org/2000/svg">
    <!-- Generator: Sketch 52.6 (67491) - http://www.bohemiancoding.com/sketch -->

    <title>majestic</title>
    <desc>Created with Sketch.</desc>
    <g>
        <title>background</title>
        <rect fill="none" id="canvas_background" height="402" width="582" y="-1" x="-1"/>
    </g>
    <g>
        <title>Layer 1</title>
        <text stroke="#000"
              transform="matrix(0.5339685244989816,0,0,0.9096018186861905,21.558252229793446,15.929427034893633) "
              xml:space="preserve" text-anchor="start" font-family="Helvetica, Arial, sans-serif" font-size="24"
              id="svg_1" y="15.866404" x="46.352218" stroke-width="0" fill="#000000">SmartHome</text>
        <path stroke="#000" id="svg_2"
              d="m6.802181,8.691926c-0.170726,0 -0.258478,-0.134091 -0.258478,-0.294889c0,-0.13406 0.04387,-0.264216 0.170726,-0.264216c0.087753,0 0.219853,0.130157 0.263723,0.264216c0.087753,0.195188 0,0.294889 -0.17597,0.294889zm29.183757,7.651046c0.390592,0 0.478332,0.034389 0.258478,0.264185c-0.126856,0.160799 -0.390579,0.294858 -0.517435,0.294858c-0.132087,0 -0.263723,-0.13406 -0.263723,-0.294858c0,-0.164743 0.175984,-0.264185 0.52268,-0.264185zm-27.269486,-9.358953c-0.390579,-0.065063 -0.434462,-0.394528 0,-0.494001c0.21984,-0.030632 0.346709,0.065052 0.346709,0.264216c0,0.164722 -0.126869,0.260448 -0.346709,0.229785zm-4.868655,10.408084c0.52268,-0.095736 0.52268,-0.164546 0.346709,-0.390594c-0.131636,-0.164546 -0.175506,-0.363689 -0.087753,-0.428762c0.04387,-0.099649 0.263723,0 0.390579,0.195209c0.17597,0.264216 0.307593,0.298813 0.654302,0.13406c0.215087,-0.099463 0.390579,-0.164702 0.390579,-0.065052c0,0.065052 0.132101,0 0.302826,-0.13406c0.263736,-0.195209 0.307606,-0.624148 0.043883,-0.853953c-0.214609,-0.195209 -1.303838,-0.130136 -1.606664,0.099463c-0.175506,0.164754 -0.307606,0.130343 -0.478332,-0.164515c-0.263723,-0.490275 -0.263723,-0.559106 0.346696,-0.589737c0.52268,0 0.52268,0 0.087753,-0.199143c-0.219375,-0.095736 -0.434449,-0.294858 -0.434449,-0.425015c0,-0.329445 0.605653,-0.524654 0.869376,-0.294848c0.087753,0.095715 0.258492,0.195209 0.434462,0.195209c0.346709,0 2.00201,-1.114246 2.00201,-1.344052c0,-0.099639 0.171204,-0.164691 0.346709,-0.099639c0.215073,0.034587 0.605666,-0.065052 1.00149,-0.229806c0.561305,-0.264195 0.561305,-0.294858 0.258478,-0.72362c-0.214609,-0.294858 -0.478332,-0.394528 -1.088764,-0.394528c-0.693405,0 -0.869376,0.065083 -1.083984,0.459612c-0.088231,0.264185 -0.351941,0.459404 -0.52268,0.459404c-0.302826,0 -0.390579,-0.294682 -0.087753,-0.459404c0.131623,-0.065083 0.219375,-0.294858 0.219375,-0.524664c0,-0.359952 -0.087753,-0.425015 -0.654302,-0.329268c-0.566549,0.065052 -0.566549,0.034389 -0.434462,-0.459633c0.087753,-0.294848 0.214609,-0.559043 0.30284,-0.589706c0.087753,-0.034389 0.175492,-0.329268 0.175492,-0.624127c0,-0.589768 0.258956,-0.689231 0.737766,-0.264216c0.219362,0.229796 0.351476,0.264216 0.434449,0.065052c0.087753,-0.130136 0.395346,-0.160799 0.874156,-0.095746c0.649536,0.130157 0.693405,0.095746 0.605653,-0.294858c-0.04387,-0.229775 -0.088218,-0.493991 -0.132087,-0.559043c0,-0.099494 -0.214609,-0.229806 -0.473565,-0.3293c-0.52268,-0.164691 -0.654302,-0.559043 -0.17597,-0.559043c0.132101,0 0.258943,-0.065083 0.258943,-0.195417c0,-0.099494 0.263736,-0.164546 0.610433,-0.13408c0.47881,0.034587 0.737288,-0.095695 1.391591,-0.784894c0.47881,-0.494022 0.825506,-0.758217 0.869389,-0.624158c0.04387,0.164546 0.263723,0.260261 0.478797,0.260261c0.346709,0 0.390592,-0.095715 0.263736,-0.524477c-0.044348,-0.294879 -0.263736,-0.65479 -0.395824,-0.819543c-0.390592,-0.363834 -0.390592,-0.788849 0,-0.658745c0.307593,0.130343 1.264722,-0.229598 1.264722,-0.459394c0,-0.099649 0.127334,-0.164722 0.302826,-0.164722c0.175984,0 0.258956,0.199133 0.258956,0.459602c0,0.329268 0.087753,0.459425 0.307606,0.363679c0.170726,-0.06882 0.30284,-0.264216 0.30284,-0.394342c0,-0.394549 1.391577,-1.083759 1.738273,-0.888374c0.132114,0.065104 0.263723,0 0.308098,-0.229775c0.126843,-0.459602 0.912767,-0.819543 1.259464,-0.589737c0.175984,0.095715 0.346723,0.065083 0.39107,-0.034389c0.08774,-0.130333 0.434449,-0.229806 0.825028,-0.26049c0.390579,-0.034389 0.913259,-0.164722 1.133112,-0.298782c0.825028,-0.425015 1.650547,-0.394352 1.997243,0.065281c0.219853,0.329248 0.307593,0.329248 0.307593,0.099442c0,-0.294879 0.171217,-0.329268 1.216098,-0.229775c1.655314,0.130333 1.91427,0.130333 2.524703,-0.034421c0.390579,-0.095736 0.522666,-0.065073 0.522666,0.199112c0,0.164754 0.126869,0.294889 0.30284,0.294889c0.131623,0 0.258478,-0.095746 0.258478,-0.195396c0,-0.264185 0.698663,-0.394342 1.309083,-0.264185c0.473565,0.130333 0.517435,0.164691 0.390579,1.049308c-0.04387,0.528411 0,0.888353 0.082986,0.888353c0.08774,0 0.17597,-0.229806 0.17597,-0.559074c0,-0.555327 0.478332,-0.784946 0.654302,-0.329279c0.043883,0.164556 0.170726,0.099473 0.258478,-0.160788c0.219867,-0.689407 0.698663,-0.329476 0.566549,0.425015c-0.131609,0.624127 -0.131609,0.624127 0.25897,0.394321c0.21984,-0.099473 0.390566,-0.359911 0.390566,-0.524477c0,-0.164733 0.132114,-0.360118 0.30762,-0.428949c0.346683,-0.130105 0.737753,0.36371 0.610419,0.723797c-0.04387,0.164577 -0.04387,0.294879 0.082973,0.294879c0.088231,0 0.175984,-0.095715 0.175984,-0.164722c0,-0.095736 0.215073,-0.130157 0.478797,-0.065052c0.566085,0.099473 0.649058,0.363658 0.170739,0.524457c-0.126856,0.069007 -0.258956,0.229806 -0.258956,0.363886c0,0.229806 0.088218,0.229806 0.566549,0c0.781158,-0.394342 1.127854,-0.363886 1.259968,0.065052c0.08774,0.229806 0.258943,0.329455 0.434449,0.229806c0.17597,-0.03441 0.566549,0.099649 0.869389,0.329268c0.263723,0.195385 0.654302,0.359942 0.830273,0.359942c0.258956,0 0.258956,0.164743 0.170726,0.624324c-0.08774,0.494022 -0.08774,0.559074 0.175984,0.359963c0.346696,-0.325552 0.478332,-0.29491 0.605666,0.164515c0.04387,0.229806 0.351463,0.394528 0.698172,0.494001c0.390579,0.065281 0.605666,0.229796 0.605666,0.425191c0,0.199133 0.131609,0.428762 0.263723,0.559095c0.346709,0.229775 0.258478,0.918985 -0.132114,1.148781c-0.131609,0.068831 -0.302813,0.034421 -0.346696,-0.065052c-0.08774,-0.09967 -0.390579,-0.09967 -0.957142,0c-0.913259,0.229598 -1.083984,0.294858 -0.869376,0.593464c0.132101,0.195209 1.651012,0.130157 2.48082,-0.099649c0.258956,-0.099483 0.346709,0 0.346709,0.459612c0,0.329248 -0.087753,0.589737 -0.219375,0.589737c-0.088231,0 -0.171204,0.099463 -0.171204,0.264185c0,0.394508 0.215087,0.359911 0.781636,-0.099494c0.302348,-0.264185 0.478319,-0.329445 0.693405,-0.164691c0.219375,0.164691 0.263723,0.164691 0.263723,-0.099494c0,-0.160996 -0.088231,-0.294858 -0.21984,-0.294858c-0.082986,0 -0.171217,-0.130333 -0.171217,-0.26049c0,-0.164702 0.127334,-0.294858 0.302826,-0.294858c0.132101,0 0.307606,0.065052 0.307606,0.160799c0,0.099691 0.171204,0.229796 0.391057,0.264216c0.302362,0.09967 0.390579,0.229806 0.346696,0.624148c-0.088218,0.754439 0.087766,0.984266 0.737288,0.85413c0.307606,-0.065281 0.478319,0 0.346709,0.130136c-0.039103,0.065052 0,0.229806 0.087753,0.298585c0.351941,0.195406 0.21984,0.654842 -0.170739,0.654842c-0.478797,0 -0.610433,0.164691 -0.351463,0.459581c0.175492,0.164722 0.307593,0.195209 0.478319,0.065073c0.395824,-0.329268 0.47881,-0.065073 0.52268,1.248482c0,0.658516 0.087753,1.183201 0.175506,1.183201c0.215073,0 0.132101,0.723797 -0.175506,1.018655c-0.171204,0.164546 -0.171204,0.325334 -0.04387,0.459394c0.307593,0.294889 0,1.148843 -0.39107,1.148843c-0.346683,0 -1.000998,0.624127 -1.000998,0.919006c0,0.360139 -0.561305,0 -0.693405,-0.394352c-0.131623,-0.359931 -0.131623,-0.359931 -0.219853,-0.099649c-0.082973,0.298792 0.391057,1.217798 0.786416,1.478236c0.258943,0.199164 -0.219853,0.528411 -0.566563,0.394352c-0.175984,-0.065052 -0.258956,-0.260261 -0.258956,-0.459404c0,-0.559043 -1.088764,-1.968345 -1.91427,-2.496735c-0.439216,-0.26049 -0.829808,-0.555348 -0.829808,-0.65481c0,-0.199143 -1.392055,-0.819543 -2.173214,-1.018676c-0.43494,-0.099649 -0.566563,-0.065063 -0.566563,0.199133c0,0.195209 -0.082973,0.260261 -0.258956,0.195209c-0.390579,-0.130157 -0.566549,0.164754 -0.21984,0.459612c0.478797,0.359931 0.395824,0.788849 -0.126856,0.624127c-0.351476,-0.099473 -0.395359,-0.065083 -0.263723,0.494012c0.04387,0.325521 0.132101,0.754439 0.132101,0.949648c0,0.199143 0.08774,0.3293 0.175492,0.3293c0.127347,0 0.171204,-0.065083 0.082986,-0.164546c-0.04387,-0.09967 0.044361,-0.195396 0.21984,-0.195396c0.132114,0 0.258956,0.130312 0.258956,0.260448c0,0.13408 -0.17119,0.264185 -0.478797,0.229827c-0.258478,0 -0.478332,-0.095746 -0.478332,-0.16082c0,-0.298813 -1.172215,-2.33221 -1.518911,-2.630816c-0.390592,-0.325552 -0.131636,-0.425015 -3.218121,1.118138c-0.478319,0.229806 -1.000998,0.723797 -1.264722,1.083759c-0.215087,0.359911 -0.561783,0.723797 -0.737288,0.788849c-0.17597,0.065083 -0.825506,0.589737 -1.392069,1.148812c-2.43695,2.462138 -2.041126,2.757017 -1.870387,7.785127c0.737753,3.810093 0.737753,3.810093 0.737753,3.810093c-1.738765,0 -1.738765,0 -1.738765,0c-1.43546,0 -1.43546,0 -1.43546,0c0.131623,-3.515432 0.131623,-3.515432 0.131623,-3.515432c0.08774,-0.294661 0.132101,-0.888322 0.175984,-1.217622c0.04387,-0.195385 -1.220865,-1.049339 -1.176982,-1.244527c0,-0.164722 1.308605,0.294889 1.308605,0.130136c0.215073,-2.397086 0,-4.304115 -0.566563,-5.319033c-0.131623,-0.624158 -1.220852,-2.630618 -1.391577,-2.630618c-0.043883,0 -0.351476,-0.195385 -0.654302,-0.425191c-0.522693,-0.428741 -0.737288,-0.459425 -3.653048,-0.589737c-3.130355,-0.133883 -3.130355,-0.133883 -3.130355,-0.133883c-0.742055,0.459425 -0.742055,0.459425 -0.742055,0.459425c-0.434449,0.298782 -0.869376,0.494001 -0.996245,0.494001c-0.263723,0 -1.352952,0.689376 -1.826518,1.083697c-0.04387,0 -0.08774,-0.034358 -0.08774,-0.065052c-0.043883,0 -0.043883,0 -0.043883,-0.03441c-0.04387,-0.095715 -0.088218,-0.195385 -0.17597,-0.294858c0.263723,-0.164722 0.478797,-0.264372 0.566549,-0.229775c0.131623,0.065052 0.258956,0 0.258956,-0.164754c0,-0.164546 -0.258956,-0.229796 -0.952362,-0.164546c-0.830286,0.099494 -1.045359,0.133883 -1.176982,0.524488c-0.215087,0.199133 -0.258956,0.494012 -0.131623,0.723818c-0.044361,0.294858 -0.044361,0.493991 0,0.493991c0.04387,0 0.08774,-0.065052 0.219375,-0.13406c0,0.034421 0.04387,0.069007 0.088218,0.099649c-0.434927,0.099473 -0.65478,0.394352 -0.610433,0.68921c-0.21984,0.13406 -0.434927,0.199133 -0.698637,0.298606c0,0 0,-0.034389 -0.039116,-0.034389c0.171204,-0.294858 0.258956,-0.624158 0.302826,-1.118149c0.088231,-0.555348 0.04387,-0.919006 -0.08774,-0.919006c-0.087753,0 -0.17597,0.13406 -0.17597,0.329237c0.043856,0.164754 -0.039116,0.3293 -0.214622,0.359963c-0.132101,0.034389 -0.21984,-0.030663 -0.21984,-0.195209c0,-0.394528 -0.170739,-0.394528 -0.561796,-0.034587c-0.175492,0.13406 -0.522202,0.294879 -0.825028,0.363886c-0.395824,0.095715 -0.52268,0.030632 -0.69865,-0.3293c-0.131623,-0.294858 -0.219375,-0.624324 -0.131623,-0.75446c0.04387,-0.164722 0.04387,-0.298606 -0.126856,-0.298606c-0.47881,0 -0.132101,-0.524685 0.434449,-0.624334zm3.740788,-7.551397c-0.263723,-0.034389 -0.47881,-0.130136 -0.566549,-0.264195c-0.043883,-0.195385 -0.087753,-0.195385 -0.087753,0c0,0.13406 -0.17597,0.229806 -0.346709,0.264195c-0.307593,0 -0.307593,0.03441 0.043883,0.164754c0.214595,0.065052 0.434449,0.164515 0.478319,0.164515c0.039103,0 0.258956,-0.099463 0.47881,-0.164515c0.390579,-0.164754 0.390579,-0.164754 0,-0.164754zm34.486861,5.28837c0.082986,0.065083 0.170739,-0.034587 0.170739,-0.199133c0,-0.130312 -0.087753,-0.260469 -0.170739,-0.260469c-0.132087,0 -0.21984,0.065073 -0.21984,0.160799c0,0.09967 0.087753,0.23373 0.21984,0.298803zm-0.307593,0.294879c-0.04387,-0.09967 -0.258956,-0.229796 -0.434927,-0.229796c-0.126856,0 -0.214609,0.130125 -0.126856,0.229796c0.039103,0.099473 0.215073,0.164556 0.390579,0.164556c0.171204,0 0.215073,-0.065083 0.171204,-0.164556zm-0.390579,1.478059c0.131623,0 0.307593,-0.034389 0.307593,-0.065052c0,-0.069007 -0.17597,-0.13406 -0.307593,-0.199143c-0.171204,-0.065073 -0.30284,-0.030663 -0.30284,0.065083c0,0.099649 0.131636,0.199112 0.30284,0.199112zm0.346709,-3.120862c0.175492,-0.065104 0.26371,-0.164743 0.219375,-0.26049c-0.131636,-0.233522 -0.868924,-0.233522 -0.868924,0c0,0.26049 0.258492,0.359963 0.649549,0.26049zm-2.3883,-2.462367c-0.219853,0.09967 -0.351476,0.294879 -0.30762,0.394528c0.219853,0.260292 0.478823,0.195209 0.698185,-0.229806c0.215087,-0.394528 0.127334,-0.459581 -0.390566,-0.164722zm-0.830286,5.058575c1.133099,0.884585 1.176982,0.919006 1.176982,0.624148c0,-0.164546 -0.087753,-0.298606 -0.219853,-0.298606c-0.126843,0 -0.346696,-0.164754 -0.478319,-0.359931c-0.126869,-0.195417 -0.390579,-0.39456 -0.605666,-0.39456c-0.395346,0 -0.395346,0.034597 0.126856,0.428949zm-0.912794,-1.547087c0.263258,0 0.390592,-0.065052 0.219389,-0.095726c-0.131623,-0.065073 -0.346709,-0.065073 -0.478332,0c-0.132114,0.030673 0,0.095726 0.258943,0.095726zm-1.259955,-4.464914c0.131623,0.099494 0.522202,0.229629 0.868898,0.294889c0.610446,0.099463 0.654316,0.099463 0.307606,-0.164722c-0.395346,-0.325552 -1.47933,-0.425015 -1.176504,-0.130167zm-2.652037,-5.449138c-0.131623,0.095715 -0.175492,0.294858 -0.131623,0.424984c0.087753,0.264216 0.346709,0.034421 0.346709,-0.359931c0,-0.199143 -0.043883,-0.229806 -0.215087,-0.065052zm1.303838,7.091972c0.346709,0.164525 0.47881,0.164525 0.654794,-0.06526c0.346696,-0.359952 0.126843,-0.524477 -0.522693,-0.294848c-0.52268,0.160975 -0.52268,0.160975 -0.132101,0.360108zm-0.868898,-1.642834c0.654302,-0.3599 0.654302,-0.3599 0.131623,-0.3599c-0.351476,0 -0.610433,0.130105 -0.742055,0.3599c-0.082986,0.229629 -0.171204,0.359963 -0.127334,0.359963c0,0 0.346709,-0.195406 0.737766,-0.359963zm-0.957142,5.322791c0.302348,0.359963 0.825041,0.359963 0.654302,-0.03441c-0.04387,-0.130312 -0.088218,-0.294858 -0.088218,-0.329455c0,-0.030663 -0.175506,-0.030663 -0.390579,0.034597c-0.351476,0.065073 -0.351476,0.164546 -0.175506,0.329268zm-1.348186,-1.347944c0.346696,0.359952 0.52268,0.394342 0.913259,0.130157c0.258956,-0.164546 0.258956,-0.164546 0,-0.195209c-0.131623,0 -0.478332,-0.034597 -0.781158,-0.09967c-0.434927,-0.130136 -0.434927,-0.130136 -0.132101,0.164722zm-0.04387,-3.580495c0.21984,0 0.478797,-0.524654 0.346709,-0.6892c-0.170739,-0.164722 -0.522215,0.099463 -0.522215,0.394342c0,0.164733 0.087753,0.294858 0.175506,0.294858zm-2.128879,2.23254c-0.263723,0.13406 -0.21984,0.164754 0.126869,0.164754c0.21984,0 0.478319,-0.065281 0.566549,-0.164754c0.131609,-0.260438 -0.30284,-0.260438 -0.693419,0zm0.043883,2.891108c0.039103,0.034597 0.170726,-0.03441 0.302826,-0.195209c0.131609,-0.13406 0.522215,-0.298782 0.825028,-0.363865c0.390579,-0.099494 0.566563,-0.260282 0.566563,-0.494012c0,-0.55512 -0.610433,-0.390605 -1.259981,0.329466c-0.26371,0.363689 -0.478319,0.658568 -0.434436,0.72362zm-0.478797,-1.51249c0.390566,-0.359911 0.390566,-0.425191 0.08296,-0.524664c-0.346696,-0.130157 -0.605175,0.164754 -0.605175,0.68921c-0.044348,0.394528 -0.044348,0.394528 0.522215,-0.164546zm-0.698185,-3.875343c0.04387,0.264185 0.131623,0.229796 0.390566,-0.260469c0.30762,-0.524488 0.30762,-0.593495 0.043883,-0.593495c-0.170726,0 -0.346709,0.099494 -0.390579,0.264226c-0.087753,0.130125 -0.087753,0.428939 -0.04387,0.589737zm-0.215087,-2.691975c0,0.133883 0.082973,0.459425 0.171204,0.68921c0.131623,0.459602 0.131623,0.459602 0.263723,0.065073c0.170726,-0.394321 0,-0.984058 -0.263723,-0.984058c-0.127334,0 -0.171204,0.099442 -0.171204,0.229775zm-3.046905,1.083552c-0.215073,0.229806 -0.215073,0.459612 -0.044348,1.148812c0.088231,0.494001 0.308084,0.988013 0.434927,1.083759c0.219853,0.164722 0.263723,0 0.307593,-1.018499c0,-1.244558 -0.21984,-1.639055 -0.698172,-1.214072zm0.390579,3.481022c0.043883,0.065083 0.131623,-0.065073 0.087753,-0.260458c0,-0.199143 -0.04387,-0.229806 -0.131623,-0.099473c-0.039116,0.130136 -0.039116,0.294858 0.04387,0.359931zm1.567561,-3.086493c-0.04387,0.065083 -0.04387,0.524685 0.087753,1.018499c0.132101,0.85413 0.171204,0.888519 0.215087,0.264372c0.04387,-1.018676 -0.043883,-1.512667 -0.30284,-1.282871zm-1.479808,9.263217c0.263723,-0.394528 0.698185,-1.053096 1.001012,-1.447594c0.346696,-0.425046 0.566549,-0.984089 0.654302,-1.543164c0.127334,-0.884616 0.127334,-0.884616 0.127334,-0.884616c-0.52268,0.490264 -0.52268,0.490264 -0.52268,0.490264c-0.258956,0.264216 -0.434462,0.559074 -0.434462,0.658568c0,0.260448 -0.825506,1.903251 -1.084462,2.19813c-0.131623,0.164515 -0.351476,0.528411 -0.390579,0.788849c-0.219853,0.754304 0.171204,0.624148 0.649536,-0.260438zm-3.086486,3.381352c0.132101,0.65479 0.132101,0.65479 0.566563,-0.75447c0.258956,-0.758228 0.649536,-1.972071 0.913259,-2.726552c0.346696,-0.953426 0.478797,-1.742276 0.478797,-2.856667c0,-1.447448 -0.044348,-1.478111 -0.391044,-1.313358c-0.785938,0.425004 -1.220865,1.608206 -1.396371,3.905798c-0.082973,1.18343 -0.171204,2.366631 -0.258943,2.6271c-0.043883,0.264195 0,0.758207 0.08774,1.118149zm0.088231,-8.405537c0.170726,0.325542 0.346709,0.589737 0.346709,0.589737c0.04387,0 0.258465,-0.199143 0.434449,-0.459581c0.21984,-0.229619 0.566549,-0.493814 0.698185,-0.589561c0.5179,-0.298782 0.649522,-1.217788 0.215073,-1.841935c-0.346709,-0.559074 -1.303838,-1.183409 -1.479821,-0.984266c-0.08774,0.065073 -0.214595,0.689407 -0.302826,1.413028c-0.175492,1.083728 -0.175492,1.413173 0.088231,1.872577zm-0.263723,-7.52089c0.087753,0.06526 0.175492,0.030663 0.175492,-0.0688c0,-0.130333 -0.08774,-0.26049 -0.175492,-0.325552c-0.132101,-0.068997 -0.215087,-0.03441 -0.215087,0.095746c0,0.099473 0.082986,0.229806 0.215087,0.298606zm-14.088996,8.8305c0.605653,0.034587 0.605653,0.034587 0.605653,0.034587c0.610433,0 1.220865,-0.425191 1.220865,-0.788849c0,-0.229806 -0.04387,-0.229806 -1.826518,0.754263zm0.258956,-0.919016c0,0.099701 0.087753,0.199143 0.219853,0.199143c0.214609,0 0.825028,-0.589737 0.693405,-0.6892c-0.132101,-0.13406 -0.913259,0.294848 -0.913259,0.490057zm0.478797,-2.263172c0.654316,0.654966 0.957142,0.720039 1.303838,0.294848c0.351476,-0.394321 0.043883,-0.658537 -1.001476,-0.754283c-0.868911,-0.09967 -0.868911,-0.09967 -0.302362,0.459435zm-0.478797,-1.841769c0,0.0688 0.307593,0.229598 0.654302,0.363658c1.606677,0.624158 1.91427,0.624158 1.870387,0.030694c0,-0.359963 -0.654302,-1.148832 -0.913259,-1.148832c-0.307593,0 -1.611431,0.624148 -1.611431,0.754481zm2.349197,4.664047c0.478332,0 0.522202,-0.099494 0.131623,-0.260292c-0.17597,-0.034587 -0.346709,0 -0.390579,0.095746c-0.088231,0.099442 0.04387,0.164546 0.258956,0.164546zm0.346709,-7.71613c-0.30284,-0.164743 -0.693897,-0.229796 -0.869389,-0.164743c-0.302826,0.130333 -0.258956,0.164743 0.175492,0.264185c0.215087,0.065281 0.654794,0.130343 0.869389,0.161006c0.258956,0 0.258956,-0.06526 -0.175492,-0.260448zm-0.039103,1.183201c0.258465,0 0.302826,-0.03441 0.126856,-0.133883c-0.126856,-0.030642 -0.30284,-0.030642 -0.390592,0.034421c-0.04387,0.065052 0.087753,0.130157 0.263736,0.099463zm0.258465,0.754491c-0.610419,0 -0.610419,0.030632 -0.258465,0.294848c0.434449,0.294858 0.561305,0.329248 0.737288,0.130136c0.302813,-0.260292 0.08774,-0.424984 -0.478823,-0.424984zm0.869402,-3.710651c-0.175984,-0.164722 -0.219853,0.130157 -0.131636,0.490088c0.04387,0.229806 0.219375,0.428918 0.307606,0.428918c0.170726,0 0.04387,-0.723797 -0.17597,-0.919006zm1.391577,4.334747c-0.08774,0.030694 0.132101,0.229806 0.391057,0.394549c0.263723,0.164546 0.478319,0.229609 0.478319,0.130136c0,-0.229775 -0.737275,-0.658713 -0.869376,-0.524685zm-1.088764,0.229806c-0.390579,0.229827 -0.170726,0.819533 0.395359,0.919027c0.302826,0.065063 0.781636,0.329279 1.084462,0.589717c0.263723,0.264216 0.478319,0.363886 0.478319,0.264216c0,-0.329268 -1.738287,-1.907019 -1.95814,-1.772959zm1.782648,2.726583c-0.258943,-0.528609 -0.561783,-0.788901 -1.128345,-0.953624c-0.434449,-0.130136 -0.869376,-0.199112 -1.000998,-0.164525c-0.132101,0.034389 0.390579,0.459404 1.133112,0.953406c1.391577,0.853953 1.391577,0.853953 0.996232,0.164743zm2.309616,-5.058596c-0.087753,0 -0.175984,0.130157 -0.175984,0.260292c0,0.164722 0.088231,0.264216 0.175984,0.264216c0.126856,0 0.215087,-0.099494 0.215087,-0.264216c0,-0.130136 -0.088231,-0.260292 -0.215087,-0.260292zm-0.395346,2.691975c0,0.229775 0.742055,0.065073 1.044881,-0.229806c0.434462,-0.493991 0.390579,-0.624148 -0.17597,-0.624148c-0.390579,0 -0.868911,0.459622 -0.868911,0.853953zm1.264735,-7.092003c-0.132101,0.425015 -0.219853,0.784946 -0.17597,0.819543c0.132087,0.130157 0.47881,-0.853933 0.47881,-1.248461c0,-0.164546 -0.132114,0.034597 -0.30284,0.428918zm2.26098,6.632391c-0.219853,0 -0.390592,0.065281 -0.390592,0.195385c0,0.099494 0.126856,0.164754 0.258478,0.164754c0.17597,0 0.346709,-0.06526 0.391057,-0.164754c0.087753,-0.130105 -0.044348,-0.195385 -0.258943,-0.195385zm-0.522693,6.172966c0.258956,0.593671 0.649536,1.148812 0.869389,1.282871c0.219853,0.099494 0.654302,0.559095 0.913259,1.018676c0.258956,0.459425 0.52268,0.819367 0.566563,0.819367c0.214595,0 -0.219853,-3.021244 -0.52268,-3.940426c-0.263736,-0.788673 -0.346723,-1.51249 -0.30284,-2.661302c0.039103,-0.853933 0,-1.608413 -0.08774,-1.673476c-0.043883,-0.065073 -0.346709,-0.065073 -0.610433,0c-0.47881,0.130136 -0.52268,0.229806 -0.52268,0.953603c0,0.555151 -0.087766,0.853953 -0.30284,0.984058c-0.610419,0.294889 -0.566549,1.968355 0,3.216629zm-1.259955,-4.39982c-0.087753,-0.494001 -0.175492,-0.559074 -0.654302,-0.559074c-0.566563,0 -0.566563,0.03441 -0.52268,0.72362c0,0.425191 0.088218,0.919182 0.132087,1.148801c0.043883,0.229806 0.215087,0.459581 0.390592,0.494001c0.346696,0.164743 0.737275,-0.984058 0.654302,-1.807349zm-0.654302,3.316092c-0.390592,-0.394352 -0.654302,-0.819367 -0.693419,-0.919006c0,-0.130136 -0.21984,-0.459404 -0.478332,-0.754283c-0.263723,-0.294858 -0.566549,-0.658724 -0.69865,-0.78888c-0.434449,-0.459581 -0.346709,-0.065052 0.132101,0.953426c0.302826,0.689376 0.825041,1.313534 1.43546,1.838188c1.128332,0.888343 1.259968,0.723652 0.30284,-0.329445zm-0.693419,1.61214c0.473565,0 0.434462,-0.034389 -0.21984,-0.559043c-0.434462,-0.3293 -0.737288,-0.689231 -0.737288,-0.853964c0,-0.130125 -0.566563,-0.593485 -1.220852,-1.018499c-0.649549,-0.428907 -1.259981,-0.853922 -1.347721,-0.984235c-0.088231,-0.164546 -0.132101,-0.164546 -0.132101,0.030663c0,0.199143 -0.214609,0.229775 -0.913259,0.130136c-0.478332,-0.065083 -0.868911,-0.065083 -0.868911,-0.030486c0,0.065073 0.175492,0.459425 0.351476,0.853922c0.30284,0.654821 0.434449,0.788901 1.391591,1.049173c0.605666,0.164722 1.562781,0.559064 2.173214,0.853922c0.566563,0.298813 1.259968,0.528411 1.523691,0.528411zm-6.788157,1.114391c0.17597,0 0.434927,-0.065052 0.610419,-0.164691c0.30284,-0.229629 0.044361,-0.229629 -0.522202,0c-0.258956,0.099639 -0.302826,0.130302 -0.088218,0.164691zm-0.478332,-0.819533c0.434462,-0.133862 1.826518,-0.264195 3.091252,-0.264195c2.387836,-0.030663 2.866632,-0.130105 1.90949,-0.329268c-0.302813,-0.065052 -0.996232,-0.229806 -1.562781,-0.394352c-1.001012,-0.294858 -3.047383,-0.195385 -3.261991,0.133914c-0.044348,0.065229 -0.263723,0.099639 -0.478797,0.065229c-0.434462,-0.099649 -0.869389,0.164567 -1.001012,0.689231c-0.17597,0.424984 0.131623,0.459581 1.303838,0.099442zm-3.477065,0.754481c0.087753,0.264216 0.52268,0.294858 0.869389,0.065052c0.214595,-0.130125 0.214595,-0.195178 0,-0.394321c-0.17597,-0.195417 -0.302826,-0.195417 -0.566549,-0.030663c-0.17597,0.095746 -0.30284,0.260292 -0.30284,0.359931zm-1.391591,2.297623c0.170739,0 0.258492,0.099494 0.170739,0.294879c-0.039116,0.13406 -0.170739,0.264195 -0.258956,0.264195c-0.131623,0 -0.214609,-0.130136 -0.214609,-0.264195c0,-0.160799 0.126856,-0.294879 0.302826,-0.294879z"
              fill-opacity="null" stroke-opacity="null" stroke-width="0" fill="#000000"/>
    </g>
</svg>